<?xml version="1.0" encoding="UTF-8" standalone="no"?><!DOCTYPE svg PUBLIC "-//W3C//DTD SVG 1.1//EN" "http://www.w3.org/Graphics/SVG/1.1/DTD/svg11.dtd"><svg width="100%" height="100%" viewBox="0 0 541 541" version="1.1" xmlns="http://www.w3.org/2000/svg" xmlns:xlink="http://www.w3.org/1999/xlink" xml:space="preserve" xmlns:serif="http://www.serif.com/" style="fill-rule:evenodd;clip-rule:evenodd;stroke-linejoin:round;stroke-miterlimit:2;"><rect id="Artboard1" x="0.459" y="0.125" width="540" height="540" style="fill:none;"/><g><path d="M214.644,45.24l-0,270.294c-0,0.172 0.003,0.344 0.011,0.516c-0,-0 3.385,101.783 -112.191,163.205l11.732,22.076c127.318,-67.662 125.648,-179.665 125.448,-186.029c-0,0.004 -0,-270.062 -0,-270.062l-25,-0Z" style="fill:#222f3e;"/><path d="M402.588,360.442c0,-0 -81.002,-120.087 -101.592,-150.611c-0,-0 101.592,-150.611 101.592,-150.611l-20.726,-13.98l-106.307,157.601c-2.849,4.224 -2.849,9.755 0,13.98l106.307,157.601l20.726,-13.98Z" style="fill:#222f3e;stroke:#fff;stroke-width:0.5px;"/></g></svg>