<?xml version="1.0" encoding="UTF-8" standalone="no"?><!DOCTYPE svg PUBLIC "-//W3C//DTD SVG 1.1//EN" "http://www.w3.org/Graphics/SVG/1.1/DTD/svg11.dtd"><svg width="100%" height="100%" viewBox="0 0 540 540" version="1.1" xmlns="http://www.w3.org/2000/svg" xmlns:xlink="http://www.w3.org/1999/xlink" xml:space="preserve" xmlns:serif="http://www.serif.com/" style="fill-rule:evenodd;clip-rule:evenodd;stroke-linejoin:round;stroke-miterlimit:1.5;"><rect x="0" y="0" width="540" height="540" style="fill:#222f3e;stroke:#000;stroke-width:1px;"/><g><path d="M214.185,45.115l-0,270.294c-0,0.172 0.003,0.344 0.01,0.516c0,-0 3.386,101.783 -112.19,163.205l11.732,22.077c127.318,-67.663 125.648,-179.666 125.448,-186.03c-0,0.004 -0,-270.062 -0,-270.062l-25,-0Z" style="fill:#e6e6e6;"/><path d="M402.129,360.317c0,0 -81.002,-120.086 -101.592,-150.611c-0,0 101.592,-150.611 101.592,-150.611l-20.726,-13.98l-106.307,157.601c-2.849,4.224 -2.849,9.756 0,13.98l106.307,157.601l20.726,-13.98Z" style="fill:#e6e6e6;stroke:#fff;stroke-width:0.5px;stroke-miterlimit:2;"/></g></svg>